<svg width="158" height="35" viewBox="0 0 158 35" fill="none" xmlns="http://www.w3.org/2000/svg">
<g clip-path="url(#clip0)">
<g clip-path="url(#clip1)">
<path d="M20.3628 10.0618H18.1794C17.7496 10.0618 17.4058 10.4057 17.4058 10.8355V24.6409C17.4058 25.0707 17.7496 25.4146 18.1794 25.4146H20.3628C20.7926 25.4146 21.1365 25.0707 21.1365 24.6409V10.8355C21.1365 10.4057 20.7926 10.0618 20.3628 10.0618Z" fill="#F1C03F"/>
<path d="M20.2945 4.66339H18.1111C17.6812 4.66339 17.3374 5.00724 17.3374 5.43705V7.41416C17.3374 7.84397 17.6812 8.18782 18.1111 8.18782H20.2945C20.7243 8.18782 21.0681 7.84397 21.0681 7.41416V5.43705C21.0681 5.00724 20.7243 4.66339 20.2945 4.66339Z" fill="#F1C03F"/>
<path d="M43.0396 10.0618H40.8562C40.4264 10.0618 40.0825 10.4057 40.0825 10.8355V24.6409C40.0825 25.0707 40.4264 25.4146 40.8562 25.4146H43.0396C43.4694 25.4146 43.8133 25.0707 43.8133 24.6409V10.8355C43.8133 10.4057 43.4694 10.0618 43.0396 10.0618Z" fill="#F1C03F"/>
<path d="M43.0396 4.66339H40.8562C40.4264 4.66339 40.0825 5.00724 40.0825 5.43705V7.41416C40.0825 7.84397 40.4264 8.18782 40.8562 8.18782H43.0396C43.4694 8.18782 43.8133 7.84397 43.8133 7.41416V5.43705C43.8133 5.00724 43.4694 4.66339 43.0396 4.66339Z" fill="#F1C03F"/>
<path d="M77.7168 25.4146H74.6221C74.3814 25.4146 74.1579 25.3114 74.0204 25.1223L70.41 20.6179L66.7996 25.1223C66.6449 25.3114 66.4386 25.4146 66.1979 25.4146H63.1205C62.6391 25.4146 62.3812 24.8644 62.6735 24.4862L68.1063 17.7296L62.6735 10.973C62.364 10.5948 62.6391 10.0446 63.1205 10.0446H66.2151C66.4558 10.0446 66.6621 10.1478 66.8168 10.3369L70.4272 14.7725L74.0376 10.3369C74.1923 10.1478 74.3987 10.0446 74.6393 10.0446H77.734C78.2154 10.0446 78.4732 10.5948 78.181 10.973L72.7482 17.7296L78.181 24.4862C78.456 24.8644 78.1981 25.4146 77.7168 25.4146Z" fill="#F1C03F"/>
<path d="M14.7754 4.66339H12.3857C11.9559 4.66339 11.612 5.00724 11.612 5.43705V10.0618H5.85257C2.74076 10.0618 0.196289 12.5891 0.196289 15.7181V19.7755C0.196289 22.9045 2.72357 25.4317 5.85257 25.4317H9.68646C10.1335 25.4317 10.5461 25.2254 10.804 24.8816L11.5948 23.85V24.6409C11.5948 25.0707 11.9387 25.4145 12.3685 25.4145H14.7582C15.188 25.4145 15.5319 25.0707 15.5319 24.6409V5.43705C15.549 5.00724 15.2052 4.66339 14.7754 4.66339ZM11.5948 21.4775H5.93853C4.94138 21.4775 4.11614 20.6695 4.11614 19.6551V15.8212C4.11614 14.8241 4.92419 13.9988 5.93853 13.9988H11.5948V21.4775Z" fill="#F1C03F"/>
<path d="M37.4521 10.0618H35.0624C34.6326 10.0618 34.2888 10.4057 34.2888 10.8355V11.6435L33.5151 10.612C33.24 10.2509 32.8274 10.0446 32.3804 10.0446H28.5293C25.4003 10.0446 22.873 12.5719 22.873 15.7009V19.7583C22.873 22.8701 25.4003 25.4146 28.5293 25.4146H34.2888V25.6725C34.2888 26.6696 33.4807 27.4948 32.4664 27.4948H27.2227C26.7585 27.4948 26.4834 28.0278 26.7757 28.406L28.4777 30.6582C28.7528 31.0193 29.1654 31.2256 29.6124 31.2256H32.5695C35.6985 31.2256 38.2258 28.6983 38.2258 25.5693V10.8183C38.2258 10.4057 37.882 10.0618 37.4521 10.0618ZM34.2888 21.6838H28.6325C27.6353 21.6838 26.8101 20.8758 26.8101 19.8614V15.8212C26.8101 14.8241 27.6181 13.9989 28.6325 13.9989H34.2888V21.6838Z" fill="#F1C03F"/>
<path d="M89.5109 10.0618H85.6598C85.2128 10.0618 84.8002 10.2681 84.5252 10.6292L83.7515 11.6607V10.8527C83.7515 10.4229 83.4077 10.079 82.9778 10.079H80.5881C80.1583 10.079 79.8145 10.4229 79.8145 10.8527V16.6637V30.4691C79.8145 30.8989 80.1755 31.2428 80.6397 31.2428H82.9435C83.3905 31.2428 83.7687 30.8989 83.7687 30.4691V25.4318H89.5281C92.6571 25.4318 95.1844 22.9045 95.1844 19.7755V15.7181C95.1672 12.5891 92.6228 10.0618 89.5109 10.0618ZM91.213 19.8615C91.213 20.8586 90.4049 21.6838 89.3906 21.6838H83.7343V16.6465V14.0161H89.3906C90.3877 14.0161 91.213 14.8241 91.213 15.8384V19.8615Z" fill="#F1C03F"/>
<path d="M106.48 10.8183V13.2424C106.48 13.655 106.136 13.9989 105.723 13.9989H101.958C101.391 13.9989 100.909 14.4631 100.909 15.0476V24.8988C100.909 25.3286 100.548 25.6725 100.084 25.6725H97.7803C97.3333 25.6725 96.9551 25.3286 96.9551 24.8988V11.0934C96.9551 10.6635 97.3161 10.3197 97.7803 10.3197H100.084C100.531 10.3197 100.909 10.6635 100.909 11.0934V11.6435L101.683 10.612C101.958 10.2509 102.371 10.0446 102.818 10.0446C102.818 10.0446 104.52 10.0446 105.706 10.0446C106.136 10.0618 106.48 10.4057 106.48 10.8183Z" fill="#F1C03F"/>
<path d="M58.8223 21.6494H50.9139C50.1574 21.6494 49.5557 21.0477 49.5557 20.2913V18.5892L50.3465 19.6036C50.5872 19.913 50.9654 20.1193 51.3609 20.1365H55.8996C58.7536 20.1365 61.0573 17.764 60.937 14.8929V14.8413C60.8166 12.5375 59.1318 10.6979 56.9656 10.1822C56.5701 10.079 56.1575 10.0446 55.7449 10.0446H50.6044C50.2434 10.0446 49.8823 10.079 49.5385 10.165C47.3379 10.6635 45.7046 12.6235 45.7046 14.9616V20.2913C45.7046 23.1624 48.0256 25.5005 50.9139 25.5005H58.8223C59.3037 25.5005 59.682 25.1051 59.682 24.6237V22.5091C59.682 22.0449 59.3037 21.6494 58.8223 21.6494ZM49.5557 14.9616C49.5557 14.3771 50.0371 13.8957 50.6216 13.8957H55.9168C56.4154 13.8957 56.828 14.188 57.0171 14.6178C57.0859 14.7725 57.1203 14.9272 57.1203 15.1164C57.1203 15.7869 56.5873 16.3198 55.9168 16.3198H49.5557V14.9616Z" fill="#F1C03F"/>
<path d="M121.437 21.6494H113.529C112.772 21.6494 112.17 21.0477 112.17 20.2913V18.5892L112.961 19.6036C113.202 19.913 113.58 20.1193 113.976 20.1365H118.514C121.368 20.1365 123.672 17.764 123.552 14.8929V14.8413C123.431 12.5375 121.747 10.6979 119.58 10.1822C119.185 10.079 118.772 10.0446 118.36 10.0446H113.219C112.858 10.0446 112.497 10.079 112.153 10.165C109.953 10.6635 108.319 12.6235 108.319 14.9616V20.2913C108.319 23.1624 110.64 25.5005 113.529 25.5005H121.437C121.918 25.5005 122.297 25.1051 122.297 24.6237V22.5091C122.314 22.0449 121.918 21.6494 121.437 21.6494ZM112.17 14.9616C112.17 14.3771 112.652 13.8957 113.236 13.8957H118.532C119.03 13.8957 119.443 14.188 119.632 14.6178C119.701 14.7725 119.735 14.9272 119.735 15.1164C119.735 15.7869 119.202 16.3198 118.532 16.3198H112.17V14.9616Z" fill="#F1C03F"/>
<path d="M140.624 21.0477C140.624 23.3859 138.647 25.2942 136.205 25.2942H127.076C126.595 25.2942 126.217 24.8988 126.217 24.4346V22.32C126.217 21.8386 126.612 21.4603 127.076 21.4603H136.205C136.532 21.4603 136.773 21.2368 136.773 21.0477C136.773 20.8758 136.618 20.7211 136.394 20.6695L128.692 18.5204C126.784 18.0219 125.443 16.337 125.443 14.4115C125.443 12.0733 127.42 10.165 129.861 10.165H138.337C138.819 10.165 139.197 10.5604 139.197 11.0246V13.1393C139.197 13.6206 138.801 13.9989 138.337 13.9989H129.861C129.535 13.9989 129.294 14.2224 129.294 14.4115C129.294 14.5834 129.449 14.7381 129.672 14.7897L137.374 16.9388C139.283 17.4545 140.624 19.1394 140.624 21.0477Z" fill="#F1C03F"/>
<path d="M157.695 21.0477C157.695 23.3859 155.718 25.2942 153.277 25.2942H144.148C143.667 25.2942 143.288 24.8988 143.288 24.4346V22.32C143.288 21.8386 143.684 21.4603 144.148 21.4603H153.277C153.604 21.4603 153.844 21.2368 153.844 21.0477C153.844 20.8758 153.69 20.7211 153.466 20.6695L145.764 18.5204C143.856 18.0219 142.515 16.337 142.515 14.4115C142.515 12.0733 144.492 10.165 146.933 10.165H155.409C155.89 10.165 156.269 10.5604 156.269 11.0246V13.1393C156.269 13.6206 155.873 13.9989 155.409 13.9989H146.933C146.606 13.9989 146.366 14.2224 146.366 14.4115C146.366 14.5834 146.52 14.7381 146.744 14.7897L154.446 16.956C156.372 17.4545 157.695 19.1394 157.695 21.0477Z" fill="#F1C03F"/>
</g>
</g>
<defs>
<clipPath id="clip0">
<rect width="157.795" height="34" fill="white" transform="translate(0 0.5)"/>
</clipPath>
<clipPath id="clip1">
<rect width="157.795" height="41.8461" fill="white" transform="translate(0 -2.98718)"/>
</clipPath>
</defs>
</svg>
