<svg width="144" height="31" viewBox="0 0 144 31" fill="none" xmlns="http://www.w3.org/2000/svg">
<g clip-path="url(#clip0)">
<g clip-path="url(#clip1)">
<path d="M18.5663 8.71814H16.5755C16.1836 8.71814 15.8701 9.03165 15.8701 9.42353V22.0108C15.8701 22.4027 16.1836 22.7162 16.5755 22.7162H18.5663C18.9582 22.7162 19.2717 22.4027 19.2717 22.0108V9.42353C19.2717 9.03165 18.9582 8.71814 18.5663 8.71814Z" fill="#12284C"/>
<path d="M18.5038 3.79608H16.513C16.1211 3.79608 15.8076 4.10959 15.8076 4.50147V6.30414C15.8076 6.69602 16.1211 7.00953 16.513 7.00953H18.5038C18.8957 7.00953 19.2092 6.69602 19.2092 6.30414V4.50147C19.2092 4.10959 18.8957 3.79608 18.5038 3.79608Z" fill="#12284C"/>
<path d="M39.2421 8.71814H37.2513C36.8594 8.71814 36.5459 9.03165 36.5459 9.42353V22.0108C36.5459 22.4027 36.8594 22.7162 37.2513 22.7162H39.2421C39.6339 22.7162 39.9475 22.4027 39.9475 22.0108V9.42353C39.9475 9.03165 39.6339 8.71814 39.2421 8.71814Z" fill="#12284C"/>
<path d="M39.2421 3.79608H37.2513C36.8594 3.79608 36.5459 4.10959 36.5459 4.50147V6.30414C36.5459 6.69602 36.8594 7.00953 37.2513 7.00953H39.2421C39.6339 7.00953 39.9475 6.69602 39.9475 6.30414V4.50147C39.9475 4.10959 39.6339 3.79608 39.2421 3.79608Z" fill="#12284C"/>
<path d="M70.8593 22.7162H68.0377C67.8183 22.7162 67.6145 22.6222 67.4891 22.4498L64.1973 18.3428L60.9054 22.4498C60.7644 22.6222 60.5763 22.7162 60.3568 22.7162H57.5509C57.112 22.7162 56.8769 22.2146 57.1434 21.8698L62.0968 15.7093L57.1434 9.54893C56.8612 9.20407 57.112 8.70245 57.5509 8.70245H60.3725C60.5919 8.70245 60.7801 8.79651 60.9211 8.96894L64.213 13.0132L67.5048 8.96894C67.6459 8.79651 67.834 8.70245 68.0534 8.70245H70.875C71.3139 8.70245 71.549 9.20407 71.2826 9.54893L66.3291 15.7093L71.2826 21.8698C71.5334 22.2146 71.2982 22.7162 70.8593 22.7162Z" fill="#12284C"/>
<path d="M13.4719 3.79608H11.293C10.9012 3.79608 10.5876 4.10959 10.5876 4.50147V8.71815H5.3364C2.49916 8.71815 0.179199 11.0224 0.179199 13.8753V17.5747C0.179199 20.4276 2.48348 22.7319 5.3364 22.7319H8.832C9.23956 22.7319 9.61577 22.5438 9.8509 22.2303L10.572 21.2898V22.0109C10.572 22.4027 10.8855 22.7162 11.2774 22.7162H13.4562C13.8481 22.7162 14.1616 22.4027 14.1616 22.0109V4.50147C14.1773 4.10959 13.8638 3.79608 13.4719 3.79608ZM10.572 19.1266H5.41478C4.5056 19.1266 3.75318 18.3898 3.75318 17.465V13.9694C3.75318 13.0602 4.48993 12.3078 5.41478 12.3078H10.572V19.1266Z" fill="#12284C"/>
<path d="M34.1477 8.71813H31.9688C31.5769 8.71813 31.2634 9.03164 31.2634 9.42353V10.1603L30.558 9.21974C30.3072 8.89056 29.931 8.70245 29.5235 8.70245H26.0122C23.1593 8.70245 20.855 11.0067 20.855 13.8597V17.559C20.855 20.3963 23.1593 22.7162 26.0122 22.7162H31.2634V22.9514C31.2634 23.8605 30.5267 24.613 29.6018 24.613H24.8208C24.3976 24.613 24.1468 25.0989 24.4133 25.4437L25.9651 27.4972C26.216 27.8264 26.5922 28.0145 26.9997 28.0145H29.6959C32.5488 28.0145 34.8531 25.7102 34.8531 22.8573V9.40785C34.8531 9.03164 34.5396 8.71813 34.1477 8.71813ZM31.2634 19.3147H26.1062C25.1971 19.3147 24.4446 18.5779 24.4446 17.6531V13.9694C24.4446 13.0602 25.1814 12.3078 26.1062 12.3078H31.2634V19.3147Z" fill="#12284C"/>
<path d="M81.6129 8.71814H78.1016C77.694 8.71814 77.3178 8.90624 77.067 9.23542L76.3616 10.1759V9.4392C76.3616 9.04732 76.0481 8.73381 75.6562 8.73381H73.4774C73.0855 8.73381 72.772 9.04732 72.772 9.4392V14.7375V27.3248C72.772 27.7167 73.1011 28.0302 73.5244 28.0302H75.6249C76.0324 28.0302 76.3773 27.7167 76.3773 27.3248V22.7319H81.6286C84.4815 22.7319 86.7858 20.4276 86.7858 17.5747V13.8753C86.7701 11.0224 84.4501 8.71814 81.6129 8.71814ZM83.1647 17.6531C83.1647 18.5623 82.428 19.3147 81.5031 19.3147H76.3459V14.7218V12.3235H81.5031C82.4123 12.3235 83.1647 13.0602 83.1647 13.9851V17.6531Z" fill="#12284C"/>
<path d="M97.0845 9.40785V11.6181C97.0845 11.9943 96.771 12.3078 96.3948 12.3078H92.9619C92.4446 12.3078 92.0057 12.731 92.0057 13.264V22.246C92.0057 22.6379 91.6766 22.9514 91.2533 22.9514H89.1528C88.7453 22.9514 88.4004 22.6379 88.4004 22.246V9.65866C88.4004 9.26677 88.7296 8.95327 89.1528 8.95327H91.2533C91.6609 8.95327 92.0057 9.26677 92.0057 9.65866V10.1603L92.7111 9.21974C92.9619 8.89056 93.3381 8.70245 93.7457 8.70245C93.7457 8.70245 95.2976 8.70245 96.3792 8.70245C96.771 8.71813 97.0845 9.03164 97.0845 9.40785Z" fill="#12284C"/>
<path d="M53.6322 19.2833H46.4215C45.7318 19.2833 45.1832 18.7347 45.1832 18.045V16.4931L45.9042 17.418C46.1237 17.7001 46.4685 17.8882 46.8291 17.9039H50.9674C53.5695 17.9039 55.67 15.7407 55.5602 13.1229V13.0759C55.4505 10.9754 53.9143 9.29812 51.9392 8.82785C51.5787 8.7338 51.2025 8.70245 50.8263 8.70245H46.1394C45.8102 8.70245 45.481 8.73381 45.1675 8.81218C43.161 9.26677 41.6719 11.0538 41.6719 13.1856V18.045C41.6719 20.6628 43.788 22.7946 46.4215 22.7946H53.6322C54.0711 22.7946 54.4159 22.4341 54.4159 21.9952V20.0671C54.4159 19.6439 54.0711 19.2833 53.6322 19.2833ZM45.1832 13.1856C45.1832 12.6527 45.6221 12.2137 46.155 12.2137H50.983C51.4376 12.2137 51.8138 12.4802 51.9863 12.8721C52.049 13.0132 52.0803 13.1543 52.0803 13.3267C52.0803 13.938 51.5944 14.424 50.983 14.424H45.1832V13.1856Z" fill="#12284C"/>
<path d="M110.722 19.2833H103.511C102.822 19.2833 102.273 18.7347 102.273 18.045V16.4931L102.994 17.418C103.214 17.7001 103.558 17.8882 103.919 17.9039H108.057C110.659 17.9039 112.76 15.7407 112.65 13.1229V13.0759C112.54 10.9754 111.004 9.29812 109.029 8.82785C108.669 8.7338 108.292 8.70245 107.916 8.70245H103.229C102.9 8.70245 102.571 8.73381 102.257 8.81218C100.251 9.26677 98.7617 11.0538 98.7617 13.1856V18.045C98.7617 20.6628 100.878 22.7946 103.511 22.7946H110.722C111.161 22.7946 111.506 22.4341 111.506 21.9952V20.0671C111.521 19.6439 111.161 19.2833 110.722 19.2833ZM102.273 13.1856C102.273 12.6527 102.712 12.2137 103.245 12.2137H108.073C108.527 12.2137 108.904 12.4802 109.076 12.8721C109.139 13.0132 109.17 13.1543 109.17 13.3267C109.17 13.938 108.684 14.424 108.073 14.424H102.273V13.1856Z" fill="#12284C"/>
<path d="M128.215 18.7347C128.215 20.8665 126.413 22.6065 124.187 22.6065H115.863C115.424 22.6065 115.079 22.246 115.079 21.8227V19.8947C115.079 19.4557 115.44 19.1109 115.863 19.1109H124.187C124.485 19.1109 124.704 18.9071 124.704 18.7347C124.704 18.5779 124.563 18.4368 124.359 18.3898L117.337 16.4304C115.597 15.9758 114.374 14.4396 114.374 12.684C114.374 10.5521 116.177 8.81216 118.403 8.81216H126.131C126.569 8.81216 126.914 9.1727 126.914 9.59593V11.524C126.914 11.9629 126.554 12.3078 126.131 12.3078H118.403C118.105 12.3078 117.885 12.5116 117.885 12.684C117.885 12.8407 118.026 12.9818 118.23 13.0288L125.253 14.9883C126.993 15.4585 128.215 16.9947 128.215 18.7347Z" fill="#12284C"/>
<path d="M143.781 18.7347C143.781 20.8665 141.979 22.6065 139.753 22.6065H131.429C130.99 22.6065 130.645 22.246 130.645 21.8227V19.8947C130.645 19.4557 131.006 19.1109 131.429 19.1109H139.753C140.051 19.1109 140.27 18.9071 140.27 18.7347C140.27 18.5779 140.129 18.4368 139.925 18.3898L132.903 16.4304C131.163 15.9758 129.94 14.4396 129.94 12.684C129.94 10.5521 131.743 8.81216 133.969 8.81216H141.696C142.135 8.81216 142.48 9.1727 142.48 9.59593V11.524C142.48 11.9629 142.12 12.3078 141.696 12.3078H133.969C133.671 12.3078 133.451 12.5116 133.451 12.684C133.451 12.8407 133.592 12.9818 133.796 13.0288L140.819 15.0039C142.574 15.4585 143.781 16.9947 143.781 18.7347Z" fill="#12284C"/>
</g>
</g>
<defs>
<clipPath id="clip0">
<rect width="143.872" height="31" fill="white"/>
</clipPath>
<clipPath id="clip1">
<rect width="143.872" height="38.1538" fill="white" transform="translate(0 -3.17947)"/>
</clipPath>
</defs>
</svg>
