<svg width="441" height="441" viewBox="0 0 441 441" fill="none" xmlns="http://www.w3.org/2000/svg">
<g opacity="0.05">
<path fill-rule="evenodd" clip-rule="evenodd" d="M260.387 349.125H183.75H162.238C154.671 370.535 134.252 385.875 110.25 385.875C86.2482 385.875 65.8292 370.535 58.2617 349.125H36.75C26.6018 349.125 18.375 340.898 18.375 330.75V196C18.375 148.766 55.7238 110.25 102.083 110.25H165.375V91.875C165.375 81.7268 173.602 73.5 183.75 73.5H404.25C414.398 73.5 422.625 81.7268 422.625 91.875V330.75C422.625 340.898 414.398 349.125 404.25 349.125H364.363C356.796 370.535 336.377 385.875 312.375 385.875C288.373 385.875 267.954 370.535 260.387 349.125ZM260.387 312.375H202.125V128.625V110.25H385.875V312.375H364.363C356.796 290.965 336.377 275.625 312.375 275.625C288.373 275.625 267.954 290.965 260.387 312.375ZM165.375 312.375H162.238C154.671 290.965 134.252 275.625 110.25 275.625C86.2482 275.625 65.8292 290.965 58.2617 312.375H55.125V257.25H147V220.5H55.125V196C55.125 168.814 76.2776 147 102.083 147H165.375V312.375ZM128.625 330.75C128.625 340.898 120.398 349.125 110.25 349.125C100.102 349.125 91.875 340.898 91.875 330.75C91.875 320.602 100.102 312.375 110.25 312.375C120.398 312.375 128.625 320.602 128.625 330.75ZM312.375 349.125C322.523 349.125 330.75 340.898 330.75 330.75C330.75 320.602 322.523 312.375 312.375 312.375C302.227 312.375 294 320.602 294 330.75C294 340.898 302.227 349.125 312.375 349.125Z" fill="#606060"/>
</g>
</svg>
